<?xml version="1.0" encoding="UTF-8" standalone="no"?>
<!DOCTYPE svg PUBLIC "-//W3C//DTD SVG 1.1//EN" "http://www.w3.org/Graphics/SVG/1.1/DTD/svg11.dtd">
<svg width="100%" height="100%" viewBox="0 0 700 700" version="1.1" xmlns="http://www.w3.org/2000/svg" xmlns:xlink="http://www.w3.org/1999/xlink" xml:space="preserve" xmlns:serif="http://www.serif.com/" style="fill-rule:evenodd;clip-rule:evenodd;stroke-linejoin:round;stroke-miterlimit:2;">
    <g transform="matrix(1.05053,0,0,1.05053,391.704,404.31)">
        <path d="M146.734,20.397L176.654,112.482L273.477,112.482L195.145,169.393L225.066,261.478L146.734,204.566L68.402,261.478L98.322,169.393L19.99,112.482L116.813,112.482L146.734,20.397Z" style="fill:rgb(254,174,0);"/>
    </g>
    <g transform="matrix(1.05053,0,0,1.05053,0.000312093,404.31)">
        <path d="M146.734,20.397L176.654,112.482L273.477,112.482L195.145,169.393L225.066,261.478L146.734,204.566L68.402,261.478L98.322,169.393L19.99,112.482L116.813,112.482L146.734,20.397Z" style="fill:rgb(0,171,142);"/>
    </g>
    <g transform="matrix(1.05053,0,0,1.05053,391.704,-0.427363)">
        <path d="M146.734,20.397L176.654,112.482L273.477,112.482L195.145,169.393L225.066,261.478L146.734,204.566L68.402,261.478L98.322,169.393L19.99,112.482L116.813,112.482L146.734,20.397Z" style="fill:rgb(255,69,168);"/>
    </g>
    <g transform="matrix(1.05053,0,0,1.05053,0.000312093,-0.427363)">
        <path d="M146.734,20.397L176.654,112.482L273.477,112.482L195.145,169.393L225.066,261.478L146.734,204.566L68.402,261.478L98.322,169.393L19.99,112.482L116.813,112.482L146.734,20.397Z" style="fill:rgb(0,162,255);"/>
    </g>
</svg>
